<svg width="261" height="81" viewBox="0 0 261 81" fill="none" xmlns="http://www.w3.org/2000/svg">
<path d="M34.1669 11.9744C34.6007 10.8111 36.1282 10.548 36.926 11.4992L47.7199 24.3675C48.0123 24.7159 48.4375 24.9255 48.8919 24.9449L65.6725 25.662C66.9129 25.7151 67.6351 27.0865 66.977 28.1392L58.074 42.3813C57.8329 42.767 57.7651 43.2363 57.8871 43.6744L62.3905 59.8552C62.7233 61.0513 61.6422 62.162 60.4376 61.8614L44.1414 57.7953C43.7002 57.6851 43.2329 57.7656 42.8539 58.017L28.8567 67.3001C27.8219 67.9864 26.4315 67.3014 26.3452 66.0628L25.1765 49.3077C25.1448 48.854 24.9239 48.4345 24.5677 48.1517L11.4135 37.7082C10.4411 36.9362 10.663 35.4022 11.8143 34.9373L27.3881 28.6482C27.8099 28.4779 28.1406 28.1382 28.2995 27.712L34.1669 11.9744Z" fill="url(#paint0_linear_2_15)"/>
<path d="M99.1932 64H88.6477L104.716 17.4545H117.398L133.443 64H122.898L111.239 28.0909H110.875L99.1932 64ZM98.5341 45.7045H123.443V53.3864H98.5341V45.7045ZM167.097 39.0455L158.233 39.5909C158.081 38.8333 157.756 38.1515 157.256 37.5455C156.756 36.9242 156.097 36.4318 155.278 36.0682C154.475 35.6894 153.513 35.5 152.392 35.5C150.892 35.5 149.627 35.8182 148.597 36.4545C147.566 37.0758 147.051 37.9091 147.051 38.9545C147.051 39.7879 147.384 40.4924 148.051 41.0682C148.718 41.6439 149.862 42.1061 151.483 42.4545L157.801 43.7273C161.195 44.4242 163.725 45.5455 165.392 47.0909C167.059 48.6364 167.892 50.6667 167.892 53.1818C167.892 55.4697 167.218 57.4773 165.869 59.2045C164.536 60.9318 162.703 62.2803 160.369 63.25C158.051 64.2045 155.377 64.6818 152.347 64.6818C147.725 64.6818 144.044 63.7197 141.301 61.7955C138.574 59.8561 136.975 57.2197 136.506 53.8864L146.028 53.3864C146.316 54.7955 147.013 55.8712 148.119 56.6136C149.225 57.3409 150.642 57.7045 152.369 57.7045C154.066 57.7045 155.43 57.3788 156.46 56.7273C157.506 56.0606 158.036 55.2045 158.051 54.1591C158.036 53.2803 157.665 52.5606 156.938 52C156.21 51.4242 155.089 50.9848 153.574 50.6818L147.528 49.4773C144.119 48.7955 141.581 47.6136 139.915 45.9318C138.263 44.25 137.438 42.1061 137.438 39.5C137.438 37.2576 138.044 35.3258 139.256 33.7045C140.483 32.0833 142.203 30.8333 144.415 29.9545C146.642 29.0758 149.248 28.6364 152.233 28.6364C156.642 28.6364 160.112 29.5682 162.642 31.4318C165.188 33.2955 166.672 35.8333 167.097 39.0455ZM192.557 29.0909V36.3636H171.534V29.0909H192.557ZM176.307 20.7273H185.989V53.2727C185.989 54.1667 186.125 54.8636 186.398 55.3636C186.67 55.8485 187.049 56.1894 187.534 56.3864C188.034 56.5833 188.61 56.6818 189.261 56.6818C189.716 56.6818 190.17 56.6439 190.625 56.5682C191.08 56.4773 191.428 56.4091 191.67 56.3636L193.193 63.5682C192.708 63.7197 192.027 63.8939 191.148 64.0909C190.269 64.303 189.201 64.4318 187.943 64.4773C185.61 64.5682 183.564 64.2576 181.807 63.5455C180.064 62.8333 178.708 61.7273 177.739 60.2273C176.769 58.7273 176.292 56.8333 176.307 54.5455V20.7273ZM214.398 64.6818C210.807 64.6818 207.716 63.9545 205.125 62.5C202.549 61.0303 200.564 58.9545 199.17 56.2727C197.777 53.5758 197.08 50.3864 197.08 46.7045C197.08 43.1136 197.777 39.9621 199.17 37.25C200.564 34.5379 202.527 32.4242 205.057 30.9091C207.602 29.3939 210.587 28.6364 214.011 28.6364C216.314 28.6364 218.458 29.0076 220.443 29.75C222.443 30.4773 224.186 31.5758 225.67 33.0455C227.17 34.5152 228.337 36.3636 229.17 38.5909C230.004 40.803 230.42 43.3939 230.42 46.3636V49.0227H200.943V43.0227H221.307C221.307 41.6288 221.004 40.3939 220.398 39.3182C219.792 38.2424 218.951 37.4015 217.875 36.7955C216.814 36.1742 215.58 35.8636 214.17 35.8636C212.701 35.8636 211.398 36.2045 210.261 36.8864C209.14 37.553 208.261 38.4545 207.625 39.5909C206.989 40.7121 206.663 41.9621 206.648 43.3409V49.0455C206.648 50.7727 206.966 52.2652 207.602 53.5227C208.254 54.7803 209.17 55.75 210.352 56.4318C211.534 57.1136 212.936 57.4545 214.557 57.4545C215.633 57.4545 216.617 57.303 217.511 57C218.405 56.697 219.17 56.2424 219.807 55.6364C220.443 55.0303 220.928 54.2879 221.261 53.4091L230.216 54C229.761 56.1515 228.83 58.0303 227.42 59.6364C226.027 61.2273 224.223 62.4697 222.011 63.3636C219.814 64.2424 217.277 64.6818 214.398 64.6818ZM236.739 64V29.0909H246.125V35.1818H246.489C247.125 33.0152 248.193 31.3788 249.693 30.2727C251.193 29.1515 252.92 28.5909 254.875 28.5909C255.814 28.5909 256.686 28.7045 257.489 28.9318C258.292 29.1591 259.011 29.4697 259.648 29.8636L256.739 37.8636C256.284 37.6364 255.784 37.447 255.239 37.2955C254.708 37.1288 254.11 37.0455 253.443 37.0455C252.14 37.0455 250.958 37.3561 249.898 37.9773C248.837 38.5833 247.996 39.4242 247.375 40.5C246.754 41.5758 246.436 42.8258 246.42 44.25V64H236.739Z" fill="white"/>
<defs>
<linearGradient id="paint0_linear_2_15" x1="60.1548" y1="66.8805" x2="19.0193" y2="19.4712" gradientUnits="userSpaceOnUse">
<stop stop-color="#724BFF"/>
<stop offset="1" stop-color="#AE4EBD"/>
</linearGradient>
</defs>
</svg>
