<svg width="100" height="100" viewBox="0 0 100 100" fill="none" xmlns="http://www.w3.org/2000/svg">
<path d="M43.0202 9.30188C43.5557 7.86562 45.4414 7.54087 46.4265 8.71525L62.8597 28.3065C63.2205 28.7367 63.7456 28.9954 64.3066 29.0194L89.8541 30.1112C91.3856 30.1767 92.2771 31.8698 91.4646 33.1695L77.9104 54.8525C77.6127 55.3286 77.5289 55.9079 77.6795 56.4489L84.5358 81.0834C84.9468 82.5601 83.612 83.9312 82.1248 83.5602L57.3146 77.3697C56.7698 77.2337 56.1929 77.3331 55.725 77.6434L34.4149 91.7766C33.1374 92.6238 31.421 91.7781 31.3143 90.249L29.535 64.7401C29.496 64.18 29.2232 63.6621 28.7835 63.3129L8.75682 47.4132C7.55634 46.4601 7.8302 44.5663 9.25152 43.9923L32.9621 34.4175C33.4827 34.2072 33.891 33.7878 34.0872 33.2616L43.0202 9.30188Z" fill="url(#paint0_linear_4_6)"/>
<defs>
<linearGradient id="paint0_linear_4_6" x1="81.0652" y1="90.7922" x2="20.4781" y2="20.9646" gradientUnits="userSpaceOnUse">
<stop stop-color="#724BFF"/>
<stop offset="1" stop-color="#AE4EBD"/>
</linearGradient>
</defs>
</svg>
